<svg width="87" height="24" viewBox="0 0 87 24" fill="none" xmlns="http://www.w3.org/2000/svg">
<path d="M12 22C17.5228 22 22 17.5228 22 12C22 6.47715 17.5228 2 12 2C6.47715 2 2 6.47715 2 12C2 17.5228 6.47715 22 12 22Z" stroke="white" stroke-width="2" stroke-linecap="round" stroke-linejoin="round"/>
<path d="M2 12H22" stroke="white" stroke-width="2" stroke-linecap="round" stroke-linejoin="round"/>
<path d="M12 2C14.5013 4.73835 15.9228 8.29203 16 12C15.9228 15.708 14.5013 19.2616 12 22C9.49872 19.2616 8.07725 15.708 8 12C8.07725 8.29203 9.49872 4.73835 12 2Z" stroke="white" stroke-width="2" stroke-linecap="round" stroke-linejoin="round"/>
<g clip-path="url(#clip0_85_3817)">
<path d="M75 15C76.6569 15 78 13.6569 78 12C78 10.3431 76.6569 9 75 9C73.3431 9 72 10.3431 72 12C72 13.6569 73.3431 15 75 15Z" stroke="white" stroke-width="2" stroke-linecap="round" stroke-linejoin="round"/>
<path d="M82.4 15C82.2669 15.3016 82.2272 15.6362 82.286 15.9606C82.3448 16.285 82.4995 16.5843 82.73 16.82L82.79 16.88C82.976 17.0657 83.1235 17.2863 83.2241 17.5291C83.3248 17.7719 83.3766 18.0322 83.3766 18.295C83.3766 18.5578 83.3248 18.8181 83.2241 19.0609C83.1235 19.3037 82.976 19.5243 82.79 19.71C82.6043 19.896 82.3837 20.0435 82.1409 20.1441C81.8981 20.2448 81.6378 20.2966 81.375 20.2966C81.1122 20.2966 80.8519 20.2448 80.6091 20.1441C80.3663 20.0435 80.1457 19.896 79.96 19.71L79.9 19.65C79.6643 19.4195 79.365 19.2648 79.0406 19.206C78.7162 19.1472 78.3816 19.1869 78.08 19.32C77.7842 19.4468 77.532 19.6572 77.3543 19.9255C77.1766 20.1938 77.0813 20.5082 77.08 20.83V21C77.08 21.5304 76.8693 22.0391 76.4942 22.4142C76.1191 22.7893 75.6104 23 75.08 23C74.5496 23 74.0409 22.7893 73.6658 22.4142C73.2907 22.0391 73.08 21.5304 73.08 21V20.91C73.0723 20.579 72.9651 20.258 72.7725 19.9887C72.5799 19.7194 72.3107 19.5143 72 19.4C71.6984 19.2669 71.3638 19.2272 71.0394 19.286C70.715 19.3448 70.4157 19.4995 70.18 19.73L70.12 19.79C69.9343 19.976 69.7137 20.1235 69.4709 20.2241C69.2281 20.3248 68.9678 20.3766 68.705 20.3766C68.4422 20.3766 68.1819 20.3248 67.9391 20.2241C67.6963 20.1235 67.4757 19.976 67.29 19.79C67.104 19.6043 66.9565 19.3837 66.8559 19.1409C66.7552 18.8981 66.7034 18.6378 66.7034 18.375C66.7034 18.1122 66.7552 17.8519 66.8559 17.6091C66.9565 17.3663 67.104 17.1457 67.29 16.96L67.35 16.9C67.5805 16.6643 67.7352 16.365 67.794 16.0406C67.8528 15.7162 67.8131 15.3816 67.68 15.08C67.5532 14.7842 67.3428 14.532 67.0745 14.3543C66.8062 14.1766 66.4918 14.0813 66.17 14.08H66C65.4696 14.08 64.9609 13.8693 64.5858 13.4942C64.2107 13.1191 64 12.6104 64 12.08C64 11.5496 64.2107 11.0409 64.5858 10.6658C64.9609 10.2907 65.4696 10.08 66 10.08H66.09C66.421 10.0723 66.742 9.96512 67.0113 9.77251C67.2806 9.5799 67.4857 9.31074 67.6 9C67.7331 8.69838 67.7728 8.36381 67.714 8.03941C67.6552 7.71502 67.5005 7.41568 67.27 7.18L67.21 7.12C67.024 6.93425 66.8765 6.71368 66.7759 6.47088C66.6752 6.22808 66.6234 5.96783 66.6234 5.705C66.6234 5.44217 66.6752 5.18192 66.7759 4.93912C66.8765 4.69632 67.024 4.47575 67.21 4.29C67.3957 4.10405 67.6163 3.95653 67.8591 3.85588C68.1019 3.75523 68.3622 3.70343 68.625 3.70343C68.8878 3.70343 69.1481 3.75523 69.3909 3.85588C69.6337 3.95653 69.8543 4.10405 70.04 4.29L70.1 4.35C70.3357 4.58054 70.635 4.73519 70.9594 4.794C71.2838 4.85282 71.6184 4.81312 71.92 4.68H72C72.2958 4.55324 72.548 4.34276 72.7257 4.07447C72.9034 3.80618 72.9987 3.49179 73 3.17V3C73 2.46957 73.2107 1.96086 73.5858 1.58579C73.9609 1.21071 74.4696 1 75 1C75.5304 1 76.0391 1.21071 76.4142 1.58579C76.7893 1.96086 77 2.46957 77 3V3.09C77.0013 3.41179 77.0966 3.72618 77.2743 3.99447C77.452 4.26276 77.7042 4.47324 78 4.6C78.3016 4.73312 78.6362 4.77282 78.9606 4.714C79.285 4.65519 79.5843 4.50054 79.82 4.27L79.88 4.21C80.0657 4.02405 80.2863 3.87653 80.5291 3.77588C80.7719 3.67523 81.0322 3.62343 81.295 3.62343C81.5578 3.62343 81.8181 3.67523 82.0609 3.77588C82.3037 3.87653 82.5243 4.02405 82.71 4.21C82.896 4.39575 83.0435 4.61632 83.1441 4.85912C83.2448 5.10192 83.2966 5.36217 83.2966 5.625C83.2966 5.88783 83.2448 6.14808 83.1441 6.39088C83.0435 6.63368 82.896 6.85425 82.71 7.04L82.65 7.1C82.4195 7.33568 82.2648 7.63502 82.206 7.95941C82.1472 8.28381 82.1869 8.61838 82.32 8.92V9C82.4468 9.29577 82.6572 9.54802 82.9255 9.72569C83.1938 9.90337 83.5082 9.99872 83.83 10H84C84.5304 10 85.0391 10.2107 85.4142 10.5858C85.7893 10.9609 86 11.4696 86 12C86 12.5304 85.7893 13.0391 85.4142 13.4142C85.0391 13.7893 84.5304 14 84 14H83.91C83.5882 14.0013 83.2738 14.0966 83.0055 14.2743C82.7372 14.452 82.5268 14.7042 82.4 15Z" stroke="white" stroke-width="2" stroke-linecap="round" stroke-linejoin="round"/>
</g>
<defs>
<clipPath id="clip0_85_3817">
<rect width="24" height="24" fill="white" transform="translate(63)"/>
</clipPath>
</defs>
</svg>
